<?xml version="1.0" encoding="UTF-8" standalone="no"?>
<!DOCTYPE svg PUBLIC "-//W3C//DTD SVG 1.0//EN" "http://www.w3.org/TR/2001/REC-SVG-20010904/DTD/svg10.dtd" [
<!ENTITY ns_flows "http://ns.adobe.com/Flows/1.0/">
	<!ENTITY ns_extend "http://ns.adobe.com/Extensibility/1.0/">
	<!ENTITY ns_ai "http://ns.adobe.com/AdobeIllustrator/10.0/">
	<!ENTITY ns_graphs "http://ns.adobe.com/Graphs/1.0/">
	<!ENTITY ns_vars "http://ns.adobe.com/Variables/1.0/">
	<!ENTITY ns_imrep "http://ns.adobe.com/ImageReplacement/1.0/">
	<!ENTITY ns_sfw "http://ns.adobe.com/SaveForWeb/1.0/">
	<!ENTITY ns_custom "http://ns.adobe.com/GenericCustomNamespace/1.0/">
	<!ENTITY ns_adobe_xpath "http://ns.adobe.com/XPath/1.0/">
	<!ENTITY ns_svg "http://www.w3.org/2000/svg">
	<!ENTITY ns_xlink "http://www.w3.org/1999/xlink">
]>
<svg enable-background="new 0 0 295.644 198.303" height="198.3" viewBox="0 0 295.644 198.303" width="295.64" xml:space="preserve" xmlns="http://www.w3.org/2000/svg">
	
		
		
			
				<path d="m12.353,112.19s3.667,12 34,17c0,0 64.001,9.334 71.667,9.667 0,0 2-2.001 38,8.666 0,0 8.332,2.001 14.666-11.666 0,0 2.666-6-8-4 0,0 .001-1.668 5.334-12.334 0,0 26.332-34.332 36.666-41.666 0,0 4-5.334 4.667-9.334 0,0 15.334-32 37.667-54 0,0 6-.666 6-7.666 0,0 6.332-.667 6.666-5.667 0,0 8.667,9.333 12.667,36 0,0-.667,29.333-13.667,55.333 0,0-40.333,28.668-39.333,62.334 0,0 2,9.667 17,11.333 0,0 9.334,1.332 18.334-.334 0,0 20.334-9.667 27,9 0,0 11,5.334 13.333,9.334 0,0 3.667,2.333-20-.667 0,0-4,3.667-26-4 0,0-15.001-2.667-29.667,7 0,0-10,7-21.333,4 0,0-29.667,21.333-79-9 0,0-2.667-1.999-13.667,5.667 0,0-11.666-5.668-28.333-5.334l5.667-1.666s21.666-13 2.333-9c0,0-5.334-4 30.333-13 0,0-18.001-10.667-26.667-12.667 0,0-33.333-10.667-42.333-11.667 0,0-33.666-6.333-46.333-5.333 0,0 18-.667 23-.667 0,0-12-4.333-23-4.333 0,0 13-.333 23.667,1.667-.007,0-11.341-7.33-11.341-13z" stroke="#000"></path>
			
		
	
</svg>
