<svg xmlns="http://www.w3.org/2000/svg" xmlns:xlink="http://www.w3.org/1999/xlink" version="1.1" x="0" y="0" width="360" height="117" viewBox="0 0 360 117" enable-background="new 0 0 360 117" xml:space="preserve">
  <g id="Logo_copy_as_shapes_1_">
    <g id="Line">
      <rect x="127.5" y="10.35" width="3.07" height="96.17"/>
    </g>
    <g id="Circle">
      <ellipse cx="58.33" cy="58.52" rx="54.57" ry="54.7"/>
    </g>
    <g id="text">
      <path d="M156.25 73.28h7.33V62.33h11.91v-5.96h-11.9v-5.4h14.4V44.59h-21.72V73.28zM201.99 59.32c0 0.99-0.11 1.94-0.33 2.85s-0.58 1.73-1.09 2.45 -1.19 1.29-2.03 1.73 -1.9 0.66-3.15 0.66c-1.22 0-2.25-0.21-3.08-0.64s-1.5-0.99-2.01-1.71c-0.51-0.71-0.88-1.53-1.12-2.45 -0.24-0.92-0.36-1.89-0.36-2.9V44.59h-7.33v14.73c0 1.9 0.26 3.71 0.76 5.43s1.32 3.22 2.44 4.51c1.12 1.29 2.55 2.33 4.3 3.11 1.75 0.78 3.87 1.17 6.39 1.17 2.44 0 4.54-0.36 6.28-1.1 1.75-0.73 3.19-1.74 4.33-3.03 1.14-1.29 1.98-2.79 2.52-4.51 0.54-1.71 0.81-3.57 0.81-5.58V44.59h-7.33V59.32zM224.18 44.59l-12.36 28.69h7.84l2.44-6.01h10.02l2.54 6.01h7.73L230.13 44.59H224.18zM223.67 60.9l3.46-7.44 3.36 7.44H223.67zM245.04 62.94h15.67v-7.34h-15.67V62.94zM280.9 63.4h6.11v0.26c-1.02 1.09-2.12 1.91-3.31 2.47 -1.19 0.56-2.43 0.84-3.71 0.84 -1.12 0-2.15-0.19-3.1-0.59s-1.76-0.94-2.44-1.66c-0.68-0.71-1.21-1.55-1.6-2.52s-0.58-2.05-0.58-3.24c0-1.15 0.18-2.22 0.53-3.21 0.36-0.98 0.87-1.83 1.53-2.55 0.66-0.71 1.45-1.27 2.37-1.68s1.92-0.61 3-0.61c1.43 0 2.76 0.35 3.99 1.05 1.24 0.7 2.18 1.64 2.82 2.83l5.5-4.13c-1.05-1.94-2.62-3.47-4.71-4.59 -2.09-1.12-4.52-1.68-7.3-1.68 -2.14 0-4.13 0.38-5.98 1.12 -1.85 0.75-3.45 1.77-4.81 3.06 -1.36 1.29-2.42 2.8-3.2 4.54 -0.78 1.73-1.17 3.6-1.17 5.61 0 1.97 0.38 3.85 1.15 5.63 0.76 1.78 1.81 3.36 3.13 4.72 1.32 1.36 2.87 2.44 4.63 3.24 1.76 0.8 3.65 1.2 5.65 1.2 1.46 0 2.81-0.21 4.05-0.64s2.43-1.13 3.59-2.12v2.55h6.11V58.15h-12.21V63.4zM321.63 59.22c0.93-1.46 1.4-3.06 1.4-4.79 0-1.22-0.25-2.42-0.76-3.59 -0.51-1.17-1.23-2.22-2.16-3.13s-2.03-1.66-3.31-2.24c-1.27-0.58-2.67-0.87-4.2-0.87h-14.4v28.69h7.33v-8.97h4.94l6.41 8.97h8.29l-7.38-10.6C319.42 61.84 320.7 60.68 321.63 59.22zM314.66 56.98c-0.63 0.61-1.38 0.92-2.26 0.92h-6.87v-6.93h6.61c0.88 0 1.68 0.31 2.39 0.92 0.71 0.61 1.07 1.46 1.07 2.55C315.6 55.52 315.29 56.36 314.66 56.98zM344.04 44.59h-5.95l-12.36 28.69h7.84l2.44-6.01h10.02l2.54 6.01h7.73L344.04 44.59zM337.58 60.9l3.46-7.44 3.36 7.44H337.58z"/>
    </g>
    <g id="Duck_shape_made">
      <path fill="#FFFFFF" d="M71.47 44.89c1.42 0 2.57-1.15 2.57-2.58s-1.15-2.57-2.57-2.57c-1.42 0-2.57 1.16-2.57 2.58S70.05 44.89 71.47 44.89zM94.58 39.82c0-3.24-1.86-3.92-3.41-3.92 -0.7 0-3.86 0.66-6.79-0.41 -0.8-0.29-2.97-1.5-3.04-1.53 -3.43-6.77-9.87-10.79-17.36-10.79 -11.09 0-20.12 9.04-20.12 20.15 0 3.84 1.11 7.61 3.16 10.83 -1.02 0.21-2.12 0.31-3.3 0.31 -3.16 0-6.46-0.76-9.37-1.43 -2.54-0.58-4.94-1.14-6.98-1.14 -0.43 0-0.83 0.03-1.21 0.07 -0.78 0.1-1.9 0.52-2.8 1.97 -2.18 3.49-1.9 11 0.71 18.7 3.27 9.67 11.96 21.19 34.79 21.19 21.66 0 29.37-11.65 29.37-22.56 0-9.06-4.95-14.18-7.78-16.37C80.67 54.59 94.58 48.32 94.58 39.82zM85.29 71.27c0 12.28-9.88 19.61-26.43 19.61 -21.09 0-29.04-10.44-32-19.19 -2.56-7.57-2.44-13.86-1-16.17 0.13-0.21 0.75-0.61 1.52-0.59 1.71 0.03 3.96 0.55 6.32 1.15 9.4 2.42 14.3 1 16.24 0.48 0.64-0.17 1.42-1.46 0.64-2.48 -2.41-3.13-3.78-6.8-3.78-10.75 0-9.49 7.7-17.2 17.17-17.2 6.47 0 11.86 3.37 14.81 9.24 -1.7 5.89-1.7 10.58 0.09 17.11 -0.73 0.51-1.17 0.81-1.79 1.42 -0.88 0.88-0.33 2.03 0.5 2.58C79.35 57.66 85.29 62.03 85.29 71.27zM81.53 50.96c-1.19-4.37-1.75-9.59-0.05-13.52 0.42 0.22 1 0.44 1.4 0.59 3.65 1.43 7.82 0.82 8.29 0.82 0.24 0 0.48 0.29 0.48 0.97C91.65 44.43 85.25 49.03 81.53 50.96zM74.88 56.07c-11.84 4.63-21.35-0.02-21.44-0.07 -0.36-0.18-0.81-0.04-0.99 0.33 -0.18 0.36-0.04 0.81 0.33 0.99 0.27 0.14 4.7 2.3 11.29 2.3 3.32 0 7.19-0.55 11.35-2.18 0.38-0.15 0.56-0.57 0.42-0.95C75.68 56.11 75.26 55.92 74.88 56.07zM69.9 69.44c-0.41 0-0.73 0.33-0.73 0.74 0 0.44-0.21 10.94-14.42 10.94 -8.61 0-13.73-5.13-16.02-8.19 -0.02-0.03-0.04-0.06-0.06-0.09 1.52 0.54 3.17 0.71 4.59 0.71 1.9 0 3.36-0.28 3.48-0.31 0.4-0.08 0.66-0.47 0.58-0.86 -0.08-0.4-0.47-0.66-0.86-0.58 -0.05 0.01-5.34 0.94-9.22-1.17 -1.26-2.23-1.76-4.06-1.7-4.63 1.17-0.6 10.03-2.05 16.77-0.92 0.4 0.07 0.78-0.2 0.85-0.6 0.07-0.4-0.2-0.78-0.6-0.85 -6.85-1.14-17 0.25-18.12 1.37 -0.75 0.75-0.18 2.67 0.44 4.15 2.57 6.21 9.32 13.45 19.9 13.45 15.7 0 15.89-12.28 15.89-12.41C70.64 69.77 70.31 69.44 69.9 69.44z"/>
    </g>
  </g>
</svg>
