<?xml version="1.0" encoding="utf-8"?>
<!-- Generator: Adobe Illustrator 16.0.0, SVG Export Plug-In . SVG Version: 6.00 Build 0)  -->
<!DOCTYPE svg PUBLIC "-//W3C//DTD SVG 1.1//EN" "http://www.w3.org/Graphics/SVG/1.1/DTD/svg11.dtd">
<svg version="1.1" id="Logo_copy_as_shapes_1_" xmlns="http://www.w3.org/2000/svg" xmlns:xlink="http://www.w3.org/1999/xlink"
	 x="0px" y="0px" width="360px" height="361.08px" viewBox="0 0 360 361.08" enable-background="new 0 0 360 361.08"
	 xml:space="preserve">
<g id="Circle">
	<g>
		<ellipse cx="180.044" cy="180.597" rx="168.771" ry="169.157"/>
	</g>
</g>
<g id="Duck_shape_made">
	<g>
		<path fill="#FFFFFF" d="M220.667,138.439c4.388,0,7.955-3.573,7.955-7.965s-3.567-7.965-7.955-7.965
			c-4.383,0-7.95,3.573-7.95,7.965S216.284,138.439,220.667,138.439z M292.157,122.783c0-10.013-5.744-12.116-10.562-12.116
			c-2.177,0-11.932,2.03-20.988-1.261c-2.477-0.901-9.184-4.651-9.406-4.727c-10.616-20.925-30.536-33.373-53.692-33.373
			c-34.305,0-62.214,27.952-62.216,62.311c0,11.863,3.433,23.529,9.763,33.48c-3.17,0.644-6.548,0.962-10.197,0.962
			c-9.787,0-19.978-2.351-28.971-4.424c-7.85-1.812-15.267-3.521-21.576-3.521c-1.32,0-2.582,0.077-3.751,0.225
			c-2.413,0.305-5.872,1.611-8.664,6.085c-6.737,10.793-5.864,34.026,2.179,57.814c10.111,29.896,36.982,65.533,107.585,65.533
			c66.979,0,90.845-36.033,90.845-69.755c0-28.029-15.312-43.857-24.074-50.611C249.108,168.44,292.157,149.049,292.157,122.783z
			 M263.416,220.019c0,37.978-30.563,60.652-81.756,60.652c-65.216,0-89.821-32.276-98.979-59.351
			c-7.918-23.426-7.543-42.851-3.079-49.999c0.407-0.655,2.32-1.875,4.708-1.828c5.28,0.105,12.251,1.687,19.538,3.564
			c29.057,7.482,44.212,3.092,50.217,1.475c1.989-0.537,4.401-4.52,1.97-7.674c-7.455-9.667-11.686-21.021-11.686-33.243
			c0-29.338,23.803-53.206,53.097-53.206c20.006,0,36.684,10.416,45.802,28.589c-5.255,18.206-5.253,32.723,0.284,52.91
			c-2.271,1.566-3.629,2.497-5.523,4.395c-2.713,2.717-1.011,6.272,1.531,7.974C245.034,177.953,263.416,191.452,263.416,220.019z
			 M251.771,157.214c-3.695-13.511-5.415-29.643-0.144-41.816c1.288,0.681,3.093,1.347,4.34,1.836
			c11.281,4.422,24.188,2.535,25.628,2.535c0.745,0,1.473,0.908,1.473,3.013C283.068,137.018,263.273,151.24,251.771,157.214z
			 M231.205,173.028c-36.618,14.331-66.029-0.063-66.32-0.211c-1.123-0.56-2.491-0.109-3.049,1.015
			c-0.564,1.125-0.112,2.492,1.011,3.054c0.843,0.423,14.52,7.116,34.907,7.116c10.262,0,22.221-1.692,35.104-6.733
			c1.17-0.458,1.747-1.777,1.291-2.947C233.691,173.151,232.376,172.573,231.205,173.028z M215.818,214.368
			c-1.254,0-2.272,1.018-2.272,2.276c-0.007,1.374-0.658,33.818-44.584,33.818c-26.644,0-42.481-15.868-49.549-25.326
			c-0.068-0.091-0.13-0.18-0.195-0.271c4.701,1.666,9.809,2.178,14.18,2.178c5.869,0,10.396-0.878,10.771-0.953
			c1.231-0.246,2.026-1.443,1.784-2.677c-0.246-1.23-1.443-2.041-2.672-1.786c-0.168,0.032-16.525,2.908-28.527-3.613
			c-3.913-6.9-5.446-12.567-5.251-14.333c3.604-1.868,31.024-6.329,51.878-2.852c1.234,0.221,2.409-0.63,2.613-1.87
			c0.207-1.24-0.629-2.41-1.868-2.617c-21.172-3.529-52.574,0.775-56.048,4.246c-2.315,2.321-0.545,8.257,1.35,12.823
			c7.948,19.191,28.832,41.603,61.535,41.603c48.568,0,49.129-37.986,49.129-38.37C218.091,215.386,217.072,214.368,215.818,214.368
			z"/>
	</g>
</g>
</svg>
